<svg xmlns="http://www.w3.org/2000/svg" width="32" height="32" viewBox="0 0 32 32">
  <rect width="32" height="32" rx="7" fill="#191919"/>
  <g transform="translate(5, 4)">
    <path d="M11 1C7.5 1 5 3.5 4.5 6 3 6.5 1.5 8 1.5 10s1.5 3.5 3 4c.5 2.5 2.5 5 6 5h.5V1z" fill="#8a7590"/>
    <path d="M11 1c3.5 0 6 2.5 6.5 5 1.5.5 3 2 3 4s-1.5 3.5-3 4c-.5 2.5-2.5 5-6 5h-.5V1z" fill="#6b5870"/>
    <line x1="11" y1="2" x2="11" y2="18" stroke="rgba(255,255,255,0.35)" stroke-width="0.8"/>
    <path d="M7 7c1.5.5 3 1.5 4 3M15 7c-1.5.5-3 1.5-4 3M6 14c2-.5 3.5-1.5 5-3M16 14c-2-.5-3.5-1.5-5-3" stroke="rgba(255,255,255,0.45)" stroke-width="0.8" stroke-linecap="round" fill="none"/>
  </g>
</svg>
